

##     ##    ###    ######## ######## ##    ## ########   #######  #### 
###   ###   ## ##      ##       ##     ##  ##  ##     ## ##     ##  ##  
#### ####  ##   ##     ##       ##      ####   ##     ## ##     ##  ##  
## ### ## ##     ##    ##       ##       ##    ########  ##     ##  ##  
##     ## #########    ##       ##       ##    ##     ## ##     ##  ##  
##     ## ##     ##    ##       ##       ##    ##     ## ##     ##  ##  
##     ## ##     ##    ##       ##       ##    ########   #######  #### 



Plot:
During the reign of the Vikings, Kainan, a man from a far-off world, crash lands on Earth, bringing with him an alien predator known as the Moorwen. Though both man and monster are seeking revenge for violence committed against them, Kainan leads the alliance to kill the Moorwen by fusing his advanced technology with the Viking's Iron Age weaponry.

Genres: Action | Adventure | Sci-Fi

General Info:
Name: Outlander BRRIP H264-Mattyboi1995
Size: 1.38GB
Runtime: 1h 54mn
Video: H.264/MPEG-4 AVC
Resolution: 1280x544
Bitrate: 1 400 Kbps
Audio: AAC
Channels: 6 (5.1 surround sound)
Bitrate: 319 Kbps

Video Details:
ID : 1
Format : AVC
Format/Info : Advanced Video Codec
Format profile : High@L4.0
Format settings, CABAC : Yes
Format settings, ReFrames : 4 frames
Codec ID : avc1
Codec ID/Info : Advanced Video Coding
Duration : 1h 54mn
Bit rate mode : Variable
Bit rate : 1 400 Kbps
Maximum bit rate : 10.2 Mbps
Width : 1 280 pixels
Height : 544 pixels
Display aspect ratio : 2.35:1
Frame rate mode : Constant
Frame rate : 24.000 fps
Color space : YUV
Chroma subsampling : 4:2:0
Bit depth : 8 bits
Scan type : Progressive
Bits/(Pixel*Frame) : 0.084
Stream size : 1.12 GiB (81%)
Encoded date : UTC 2010-10-12 18:38:29
Tagged date : UTC 2010-10-12 19:34:56



Audio Details:
ID : 2
Format : AAC
Format/Info : Advanced Audio Codec
Format version : Version 4
Format profile : LC
Format settings, SBR : No
Codec ID : 40
Duration : 1h 54mn
Bit rate mode : Variable
Bit rate : 319 Kbps
Maximum bit rate : 470 Kbps
Channel(s) : 6 channels
Channel positions : Front: L C R, Side: L R, LFE
Sampling rate : 48.0 KHz
Stream size : 262 MiB (19%)
Encoded date : UTC 2010-10-12 19:34:00
Tagged date : UTC
2010-10-12 19:34:56



Subtitles:
english & Romanian srt's




My Notes:
I wasnt going to encoden this film because a few people said it was crap. so i encoded it and if it was crap i wasnt going to bother releasing it. But i can tell you that this film is awsome, personaly i dont like sci-fi films but i loved this. I hope you enjoy it as much as i did 
I know the bitrate is prety low, but i watched it on a 52 inch t.v via a ps3 and it was fine 
I dont have the best upload speed in the world so please be patient.
oh and could you please read the text file inside the torrent, thanks.






================================== 
http://thepiratebay.org/user/hiest
==================================






Screen Shots:
 
http://img709.imageshack.us/img709/3831/vlcsnap2010101400h03m50.png
 
http://img138.imageshack.us/img138/2790/vlcsnap2010101400h04m27.png
 
http://img214.imageshack.us/img214/535/vlcsnap2010101400h04m51.png




##     ##    ###    ######## ######## ##    ## ########   #######  #### 
###   ###   ## ##      ##       ##     ##  ##  ##     ## ##     ##  ##  
#### ####  ##   ##     ##       ##      ####   ##     ## ##     ##  ##  
## ### ## ##     ##    ##       ##       ##    ########  ##     ##  ##  
##     ## #########    ##       ##       ##    ##     ## ##     ##  ##  
##     ## ##     ##    ##       ##       ##    ##     ## ##     ##  ##  
##     ## ##     ##    ##       ##       ##    ########   #######  #### 
